<mxfile host="app.diagrams.net" agent="Mozilla/5.0 (Windows NT 10.0; Win64; x64) AppleWebKit/537.36 (KHTML, like Gecko) Chrome/134.0.0.0 Safari/537.36" version="26.1.0">
  <diagram name="第 1 页" id="r9efI1w3UbtWpnC61uxg">
    <mxGraphModel dx="5494" dy="4628" grid="1" gridSize="10" guides="1" tooltips="1" connect="1" arrows="1" fold="1" page="1" pageScale="1" pageWidth="827" pageHeight="1169" math="0" shadow="0">
      <root>
        <mxCell id="0" />
        <mxCell id="1" parent="0" />
        <mxCell id="zDYpZziFO8J9DqXucdiA-1" value="&lt;span style=&quot;font-size: 18px;&quot;&gt;优质客户&lt;/span&gt;" style="rounded=0;whiteSpace=wrap;html=1;" parent="1" vertex="1">
          <mxGeometry x="1244" y="-976" width="120" height="60" as="geometry" />
        </mxCell>
        <mxCell id="zDYpZziFO8J9DqXucdiA-2" value="&lt;span style=&quot;font-size: 18px;&quot;&gt;客户ID&lt;/span&gt;" style="ellipse;whiteSpace=wrap;html=1;" parent="1" vertex="1">
          <mxGeometry x="979" y="-1056" width="90" height="70" as="geometry" />
        </mxCell>
        <mxCell id="zDYpZziFO8J9DqXucdiA-3" value="&lt;font style=&quot;font-size: 18px;&quot;&gt;信用额度&lt;/font&gt;" style="ellipse;whiteSpace=wrap;html=1;" parent="1" vertex="1">
          <mxGeometry x="979" y="-1146" width="90" height="70" as="geometry" />
        </mxCell>
        <mxCell id="zDYpZziFO8J9DqXucdiA-4" value="&lt;font style=&quot;font-size: 18px;&quot;&gt;性别&lt;/font&gt;" style="ellipse;whiteSpace=wrap;html=1;" parent="1" vertex="1">
          <mxGeometry x="1024" y="-1232" width="90" height="70" as="geometry" />
        </mxCell>
        <mxCell id="zDYpZziFO8J9DqXucdiA-5" value="&lt;font style=&quot;font-size: 18px;&quot;&gt;教育&lt;/font&gt;" style="ellipse;whiteSpace=wrap;html=1;" parent="1" vertex="1">
          <mxGeometry x="1084" y="-1292" width="90" height="70" as="geometry" />
        </mxCell>
        <mxCell id="zDYpZziFO8J9DqXucdiA-6" value="&lt;span style=&quot;font-size: 18px;&quot;&gt;婚姻状况&lt;/span&gt;" style="ellipse;whiteSpace=wrap;html=1;" parent="1" vertex="1">
          <mxGeometry x="1174" y="-1332" width="90" height="70" as="geometry" />
        </mxCell>
        <mxCell id="zDYpZziFO8J9DqXucdiA-7" value="" style="endArrow=none;html=1;rounded=0;entryX=1;entryY=1;entryDx=0;entryDy=0;exitX=0.5;exitY=0;exitDx=0;exitDy=0;" parent="1" source="zDYpZziFO8J9DqXucdiA-1" target="zDYpZziFO8J9DqXucdiA-2" edge="1">
          <mxGeometry width="50" height="50" relative="1" as="geometry">
            <mxPoint x="1284" y="-926" as="sourcePoint" />
            <mxPoint x="1334" y="-976" as="targetPoint" />
          </mxGeometry>
        </mxCell>
        <mxCell id="zDYpZziFO8J9DqXucdiA-8" value="" style="endArrow=none;html=1;rounded=0;entryX=0.632;entryY=0.98;entryDx=0;entryDy=0;exitX=0.5;exitY=0;exitDx=0;exitDy=0;entryPerimeter=0;" parent="1" source="zDYpZziFO8J9DqXucdiA-1" target="zDYpZziFO8J9DqXucdiA-3" edge="1">
          <mxGeometry width="50" height="50" relative="1" as="geometry">
            <mxPoint x="1314" y="-966" as="sourcePoint" />
            <mxPoint x="1141" y="-1036" as="targetPoint" />
          </mxGeometry>
        </mxCell>
        <mxCell id="zDYpZziFO8J9DqXucdiA-9" value="" style="endArrow=none;html=1;rounded=0;entryX=0.5;entryY=1;entryDx=0;entryDy=0;exitX=0.5;exitY=0;exitDx=0;exitDy=0;" parent="1" source="zDYpZziFO8J9DqXucdiA-1" target="zDYpZziFO8J9DqXucdiA-4" edge="1">
          <mxGeometry width="50" height="50" relative="1" as="geometry">
            <mxPoint x="1314" y="-966" as="sourcePoint" />
            <mxPoint x="1231" y="-1087" as="targetPoint" />
          </mxGeometry>
        </mxCell>
        <mxCell id="zDYpZziFO8J9DqXucdiA-10" value="" style="endArrow=none;html=1;rounded=0;entryX=0.5;entryY=1;entryDx=0;entryDy=0;" parent="1" target="zDYpZziFO8J9DqXucdiA-5" edge="1">
          <mxGeometry width="50" height="50" relative="1" as="geometry">
            <mxPoint x="1304" y="-976" as="sourcePoint" />
            <mxPoint x="1329" y="-1116" as="targetPoint" />
          </mxGeometry>
        </mxCell>
        <mxCell id="zDYpZziFO8J9DqXucdiA-11" value="" style="endArrow=none;html=1;rounded=0;entryX=0.5;entryY=1;entryDx=0;entryDy=0;" parent="1" target="zDYpZziFO8J9DqXucdiA-6" edge="1">
          <mxGeometry width="50" height="50" relative="1" as="geometry">
            <mxPoint x="1304" y="-976" as="sourcePoint" />
            <mxPoint x="1427" y="-1096" as="targetPoint" />
          </mxGeometry>
        </mxCell>
        <mxCell id="zDYpZziFO8J9DqXucdiA-12" value="&lt;font style=&quot;font-size: 18px;&quot;&gt;交易记录&lt;/font&gt;" style="rounded=0;whiteSpace=wrap;html=1;" parent="1" vertex="1">
          <mxGeometry x="1241" y="-220" width="120" height="60" as="geometry" />
        </mxCell>
        <mxCell id="zDYpZziFO8J9DqXucdiA-13" value="&lt;font style=&quot;font-size: 18px;&quot;&gt;交易记录ID&lt;/font&gt;" style="ellipse;whiteSpace=wrap;html=1;" parent="1" vertex="1">
          <mxGeometry x="1114" y="-30" width="90" height="70" as="geometry" />
        </mxCell>
        <mxCell id="zDYpZziFO8J9DqXucdiA-14" value="&lt;font style=&quot;font-size: 18px;&quot;&gt;客户ID&lt;/font&gt;" style="ellipse;whiteSpace=wrap;html=1;" parent="1" vertex="1">
          <mxGeometry x="1230" y="-20" width="90" height="70" as="geometry" />
        </mxCell>
        <mxCell id="zDYpZziFO8J9DqXucdiA-15" value="&lt;font style=&quot;font-size: 18px;&quot;&gt;交易类型&lt;/font&gt;" style="ellipse;whiteSpace=wrap;html=1;" parent="1" vertex="1">
          <mxGeometry x="1400" y="-10" width="90" height="70" as="geometry" />
        </mxCell>
        <mxCell id="zDYpZziFO8J9DqXucdiA-16" value="&lt;font style=&quot;font-size: 18px;&quot;&gt;交易日期&lt;/font&gt;" style="ellipse;whiteSpace=wrap;html=1;" parent="1" vertex="1">
          <mxGeometry x="1529" y="-70" width="90" height="70" as="geometry" />
        </mxCell>
        <mxCell id="zDYpZziFO8J9DqXucdiA-18" value="" style="endArrow=none;html=1;rounded=0;entryX=1;entryY=0;entryDx=0;entryDy=0;exitX=0.5;exitY=1;exitDx=0;exitDy=0;" parent="1" source="zDYpZziFO8J9DqXucdiA-12" target="zDYpZziFO8J9DqXucdiA-13" edge="1">
          <mxGeometry width="50" height="50" relative="1" as="geometry">
            <mxPoint x="1281" y="-170" as="sourcePoint" />
            <mxPoint x="1331" y="-220" as="targetPoint" />
          </mxGeometry>
        </mxCell>
        <mxCell id="zDYpZziFO8J9DqXucdiA-19" value="" style="endArrow=none;html=1;rounded=0;entryX=0.5;entryY=0;entryDx=0;entryDy=0;exitX=0.5;exitY=1;exitDx=0;exitDy=0;" parent="1" source="zDYpZziFO8J9DqXucdiA-12" target="zDYpZziFO8J9DqXucdiA-14" edge="1">
          <mxGeometry width="50" height="50" relative="1" as="geometry">
            <mxPoint x="1311" y="-210" as="sourcePoint" />
            <mxPoint x="1138" y="-280" as="targetPoint" />
          </mxGeometry>
        </mxCell>
        <mxCell id="zDYpZziFO8J9DqXucdiA-20" value="" style="endArrow=none;html=1;rounded=0;entryX=0.5;entryY=0;entryDx=0;entryDy=0;exitX=0.5;exitY=1;exitDx=0;exitDy=0;" parent="1" source="zDYpZziFO8J9DqXucdiA-12" target="zDYpZziFO8J9DqXucdiA-15" edge="1">
          <mxGeometry width="50" height="50" relative="1" as="geometry">
            <mxPoint x="1311" y="-210" as="sourcePoint" />
            <mxPoint x="1228" y="-331" as="targetPoint" />
          </mxGeometry>
        </mxCell>
        <mxCell id="zDYpZziFO8J9DqXucdiA-21" value="" style="endArrow=none;html=1;rounded=0;entryX=0;entryY=0.5;entryDx=0;entryDy=0;exitX=0.5;exitY=1;exitDx=0;exitDy=0;" parent="1" target="zDYpZziFO8J9DqXucdiA-16" edge="1" source="zDYpZziFO8J9DqXucdiA-12">
          <mxGeometry width="50" height="50" relative="1" as="geometry">
            <mxPoint x="1301" y="-220" as="sourcePoint" />
            <mxPoint x="1326" y="-360" as="targetPoint" />
          </mxGeometry>
        </mxCell>
        <mxCell id="zDYpZziFO8J9DqXucdiA-57" value="&lt;font style=&quot;font-size: 18px;&quot;&gt;客户信息&lt;/font&gt;" style="rounded=0;whiteSpace=wrap;html=1;" parent="1" vertex="1">
          <mxGeometry x="333.75" y="-230" width="120" height="60" as="geometry" />
        </mxCell>
        <mxCell id="zDYpZziFO8J9DqXucdiA-58" value="&lt;font style=&quot;font-size: 18px;&quot;&gt;客户ID&lt;/font&gt;" style="ellipse;whiteSpace=wrap;html=1;" parent="1" vertex="1">
          <mxGeometry x="158.75" width="90" height="70" as="geometry" />
        </mxCell>
        <mxCell id="zDYpZziFO8J9DqXucdiA-59" value="&lt;font style=&quot;font-size: 18px;&quot;&gt;客户姓名&lt;/font&gt;" style="ellipse;whiteSpace=wrap;html=1;" parent="1" vertex="1">
          <mxGeometry x="68.75" y="-70" width="90" height="70" as="geometry" />
        </mxCell>
        <mxCell id="zDYpZziFO8J9DqXucdiA-61" value="&lt;span style=&quot;font-size: 18px;&quot;&gt;客户身份证号&lt;/span&gt;" style="ellipse;whiteSpace=wrap;html=1;" parent="1" vertex="1">
          <mxGeometry x="536.25" y="10" width="90" height="70" as="geometry" />
        </mxCell>
        <mxCell id="zDYpZziFO8J9DqXucdiA-63" value="" style="endArrow=none;html=1;rounded=0;entryX=1;entryY=0;entryDx=0;entryDy=0;exitX=0.5;exitY=1;exitDx=0;exitDy=0;" parent="1" source="zDYpZziFO8J9DqXucdiA-57" target="zDYpZziFO8J9DqXucdiA-58" edge="1">
          <mxGeometry width="50" height="50" relative="1" as="geometry">
            <mxPoint x="422.75" y="150" as="sourcePoint" />
            <mxPoint x="472.75" y="100" as="targetPoint" />
          </mxGeometry>
        </mxCell>
        <mxCell id="zDYpZziFO8J9DqXucdiA-64" value="" style="endArrow=none;html=1;rounded=0;entryX=1;entryY=0;entryDx=0;entryDy=0;exitX=0.5;exitY=1;exitDx=0;exitDy=0;" parent="1" source="zDYpZziFO8J9DqXucdiA-57" target="zDYpZziFO8J9DqXucdiA-59" edge="1">
          <mxGeometry width="50" height="50" relative="1" as="geometry">
            <mxPoint x="452.75" y="110" as="sourcePoint" />
            <mxPoint x="279.75" y="40" as="targetPoint" />
          </mxGeometry>
        </mxCell>
        <mxCell id="zDYpZziFO8J9DqXucdiA-66" value="" style="endArrow=none;html=1;rounded=0;entryX=0;entryY=0;entryDx=0;entryDy=0;exitX=0.5;exitY=1;exitDx=0;exitDy=0;" parent="1" target="zDYpZziFO8J9DqXucdiA-61" edge="1" source="zDYpZziFO8J9DqXucdiA-57">
          <mxGeometry width="50" height="50" relative="1" as="geometry">
            <mxPoint x="442.25" y="100" as="sourcePoint" />
            <mxPoint x="467.75" y="-40" as="targetPoint" />
          </mxGeometry>
        </mxCell>
        <mxCell id="zDYpZziFO8J9DqXucdiA-68" value="&lt;font style=&quot;font-size: 18px;&quot;&gt;信用报告&lt;/font&gt;" style="rounded=0;whiteSpace=wrap;html=1;" parent="1" vertex="1">
          <mxGeometry x="1930" y="-644" width="120" height="60" as="geometry" />
        </mxCell>
        <mxCell id="zDYpZziFO8J9DqXucdiA-69" value="&lt;span style=&quot;font-size: 18px;&quot;&gt;信用报告ID&lt;/span&gt;" style="ellipse;whiteSpace=wrap;html=1;" parent="1" vertex="1">
          <mxGeometry x="1770" y="-770" width="90" height="70" as="geometry" />
        </mxCell>
        <mxCell id="zDYpZziFO8J9DqXucdiA-70" value="&lt;font style=&quot;font-size: 18px;&quot;&gt;客户ID&lt;/font&gt;" style="ellipse;whiteSpace=wrap;html=1;" parent="1" vertex="1">
          <mxGeometry x="1825" y="-860" width="90" height="70" as="geometry" />
        </mxCell>
        <mxCell id="zDYpZziFO8J9DqXucdiA-71" value="&lt;font style=&quot;font-size: 18px;&quot;&gt;报告生成日期&lt;/font&gt;" style="ellipse;whiteSpace=wrap;html=1;" parent="1" vertex="1">
          <mxGeometry x="1945" y="-900" width="90" height="70" as="geometry" />
        </mxCell>
        <mxCell id="zDYpZziFO8J9DqXucdiA-72" value="&lt;span style=&quot;font-size: 18px;&quot;&gt;报告内容&lt;/span&gt;" style="ellipse;whiteSpace=wrap;html=1;" parent="1" vertex="1">
          <mxGeometry x="2055" y="-860" width="90" height="70" as="geometry" />
        </mxCell>
        <mxCell id="zDYpZziFO8J9DqXucdiA-73" value="&lt;font style=&quot;font-size: 18px;&quot;&gt;报告结论&lt;/font&gt;" style="ellipse;whiteSpace=wrap;html=1;" parent="1" vertex="1">
          <mxGeometry x="2124" y="-770" width="90" height="70" as="geometry" />
        </mxCell>
        <mxCell id="zDYpZziFO8J9DqXucdiA-74" value="" style="endArrow=none;html=1;rounded=0;entryX=1;entryY=1;entryDx=0;entryDy=0;exitX=0.5;exitY=0;exitDx=0;exitDy=0;" parent="1" source="zDYpZziFO8J9DqXucdiA-68" target="zDYpZziFO8J9DqXucdiA-69" edge="1">
          <mxGeometry width="50" height="50" relative="1" as="geometry">
            <mxPoint x="1969" y="-600" as="sourcePoint" />
            <mxPoint x="2019" y="-650" as="targetPoint" />
          </mxGeometry>
        </mxCell>
        <mxCell id="zDYpZziFO8J9DqXucdiA-75" value="" style="endArrow=none;html=1;rounded=0;entryX=0.632;entryY=0.98;entryDx=0;entryDy=0;exitX=0.5;exitY=0;exitDx=0;exitDy=0;entryPerimeter=0;" parent="1" source="zDYpZziFO8J9DqXucdiA-68" target="zDYpZziFO8J9DqXucdiA-70" edge="1">
          <mxGeometry width="50" height="50" relative="1" as="geometry">
            <mxPoint x="1999" y="-640" as="sourcePoint" />
            <mxPoint x="1826" y="-710" as="targetPoint" />
          </mxGeometry>
        </mxCell>
        <mxCell id="zDYpZziFO8J9DqXucdiA-76" value="" style="endArrow=none;html=1;rounded=0;entryX=0.5;entryY=1;entryDx=0;entryDy=0;exitX=0.5;exitY=0;exitDx=0;exitDy=0;" parent="1" source="zDYpZziFO8J9DqXucdiA-68" target="zDYpZziFO8J9DqXucdiA-71" edge="1">
          <mxGeometry width="50" height="50" relative="1" as="geometry">
            <mxPoint x="1999" y="-640" as="sourcePoint" />
            <mxPoint x="1916" y="-761" as="targetPoint" />
          </mxGeometry>
        </mxCell>
        <mxCell id="zDYpZziFO8J9DqXucdiA-77" value="" style="endArrow=none;html=1;rounded=0;entryX=0;entryY=1;entryDx=0;entryDy=0;exitX=0.5;exitY=0;exitDx=0;exitDy=0;" parent="1" target="zDYpZziFO8J9DqXucdiA-72" edge="1" source="zDYpZziFO8J9DqXucdiA-68">
          <mxGeometry width="50" height="50" relative="1" as="geometry">
            <mxPoint x="1989" y="-650" as="sourcePoint" />
            <mxPoint x="2014" y="-790" as="targetPoint" />
          </mxGeometry>
        </mxCell>
        <mxCell id="zDYpZziFO8J9DqXucdiA-78" value="" style="endArrow=none;html=1;rounded=0;entryX=0;entryY=1;entryDx=0;entryDy=0;exitX=0.5;exitY=0;exitDx=0;exitDy=0;" parent="1" target="zDYpZziFO8J9DqXucdiA-73" edge="1" source="zDYpZziFO8J9DqXucdiA-68">
          <mxGeometry width="50" height="50" relative="1" as="geometry">
            <mxPoint x="1989" y="-650" as="sourcePoint" />
            <mxPoint x="2112" y="-770" as="targetPoint" />
          </mxGeometry>
        </mxCell>
        <mxCell id="zDYpZziFO8J9DqXucdiA-89" value="&lt;font style=&quot;font-size: 18px;&quot;&gt;贷款记录&lt;/font&gt;" style="rounded=0;whiteSpace=wrap;html=1;" parent="1" vertex="1">
          <mxGeometry x="-240" y="-640" width="120" height="60" as="geometry" />
        </mxCell>
        <mxCell id="zDYpZziFO8J9DqXucdiA-90" value="&lt;span style=&quot;font-size: 18px;&quot;&gt;贷款记录ID&lt;/span&gt;" style="ellipse;whiteSpace=wrap;html=1;" parent="1" vertex="1">
          <mxGeometry x="-460" y="-760" width="90" height="70" as="geometry" />
        </mxCell>
        <mxCell id="zDYpZziFO8J9DqXucdiA-91" value="&lt;font style=&quot;font-size: 18px;&quot;&gt;客户ID&lt;/font&gt;" style="ellipse;whiteSpace=wrap;html=1;" parent="1" vertex="1">
          <mxGeometry x="-411" y="-830" width="90" height="70" as="geometry" />
        </mxCell>
        <mxCell id="zDYpZziFO8J9DqXucdiA-92" value="&lt;font style=&quot;font-size: 18px;&quot;&gt;贷款金额&lt;/font&gt;" style="ellipse;whiteSpace=wrap;html=1;" parent="1" vertex="1">
          <mxGeometry x="-320" y="-880" width="90" height="70" as="geometry" />
        </mxCell>
        <mxCell id="zDYpZziFO8J9DqXucdiA-93" value="&lt;span style=&quot;font-size: 18px;&quot;&gt;贷款状态&lt;/span&gt;" style="ellipse;whiteSpace=wrap;html=1;" parent="1" vertex="1">
          <mxGeometry x="-11" y="-810" width="90" height="70" as="geometry" />
        </mxCell>
        <mxCell id="zDYpZziFO8J9DqXucdiA-94" value="&lt;span style=&quot;font-size: 18px;&quot;&gt;备注&lt;/span&gt;" style="ellipse;whiteSpace=wrap;html=1;" parent="1" vertex="1">
          <mxGeometry x="19" y="-730" width="90" height="70" as="geometry" />
        </mxCell>
        <mxCell id="zDYpZziFO8J9DqXucdiA-95" value="" style="endArrow=none;html=1;rounded=0;entryX=1;entryY=1;entryDx=0;entryDy=0;exitX=0.5;exitY=0;exitDx=0;exitDy=0;" parent="1" source="zDYpZziFO8J9DqXucdiA-89" target="zDYpZziFO8J9DqXucdiA-90" edge="1">
          <mxGeometry width="50" height="50" relative="1" as="geometry">
            <mxPoint x="-200" y="-590" as="sourcePoint" />
            <mxPoint x="-150" y="-640" as="targetPoint" />
          </mxGeometry>
        </mxCell>
        <mxCell id="zDYpZziFO8J9DqXucdiA-96" value="" style="endArrow=none;html=1;rounded=0;entryX=0.632;entryY=0.98;entryDx=0;entryDy=0;exitX=0.5;exitY=0;exitDx=0;exitDy=0;entryPerimeter=0;" parent="1" source="zDYpZziFO8J9DqXucdiA-89" target="zDYpZziFO8J9DqXucdiA-91" edge="1">
          <mxGeometry width="50" height="50" relative="1" as="geometry">
            <mxPoint x="-170" y="-630" as="sourcePoint" />
            <mxPoint x="-343" y="-700" as="targetPoint" />
          </mxGeometry>
        </mxCell>
        <mxCell id="zDYpZziFO8J9DqXucdiA-97" value="" style="endArrow=none;html=1;rounded=0;entryX=0.5;entryY=1;entryDx=0;entryDy=0;exitX=0.5;exitY=0;exitDx=0;exitDy=0;" parent="1" source="zDYpZziFO8J9DqXucdiA-89" target="zDYpZziFO8J9DqXucdiA-92" edge="1">
          <mxGeometry width="50" height="50" relative="1" as="geometry">
            <mxPoint x="-170" y="-630" as="sourcePoint" />
            <mxPoint x="-253" y="-751" as="targetPoint" />
          </mxGeometry>
        </mxCell>
        <mxCell id="zDYpZziFO8J9DqXucdiA-98" value="" style="endArrow=none;html=1;rounded=0;entryX=0;entryY=1;entryDx=0;entryDy=0;" parent="1" target="zDYpZziFO8J9DqXucdiA-93" edge="1">
          <mxGeometry width="50" height="50" relative="1" as="geometry">
            <mxPoint x="-180" y="-640" as="sourcePoint" />
            <mxPoint x="-155" y="-780" as="targetPoint" />
          </mxGeometry>
        </mxCell>
        <mxCell id="zDYpZziFO8J9DqXucdiA-99" value="" style="endArrow=none;html=1;rounded=0;entryX=0;entryY=0.5;entryDx=0;entryDy=0;" parent="1" target="zDYpZziFO8J9DqXucdiA-94" edge="1">
          <mxGeometry width="50" height="50" relative="1" as="geometry">
            <mxPoint x="-180" y="-640" as="sourcePoint" />
            <mxPoint x="-57" y="-760" as="targetPoint" />
          </mxGeometry>
        </mxCell>
        <mxCell id="QWyzyQEguM0yE1Y3YgbR-1" value="&lt;font style=&quot;font-size: 18px;&quot;&gt;年龄&lt;/font&gt;" style="ellipse;whiteSpace=wrap;html=1;" parent="1" vertex="1">
          <mxGeometry x="1274" y="-1362" width="90" height="70" as="geometry" />
        </mxCell>
        <mxCell id="QWyzyQEguM0yE1Y3YgbR-2" value="" style="endArrow=none;html=1;rounded=0;entryX=0.5;entryY=1;entryDx=0;entryDy=0;exitX=0.5;exitY=0;exitDx=0;exitDy=0;" parent="1" source="zDYpZziFO8J9DqXucdiA-1" target="QWyzyQEguM0yE1Y3YgbR-1" edge="1">
          <mxGeometry width="50" height="50" relative="1" as="geometry">
            <mxPoint x="1314" y="-966" as="sourcePoint" />
            <mxPoint x="1229" y="-1252" as="targetPoint" />
          </mxGeometry>
        </mxCell>
        <mxCell id="QWyzyQEguM0yE1Y3YgbR-4" value="&lt;span style=&quot;font-size: 18px;&quot;&gt;还款状态&lt;/span&gt;" style="ellipse;whiteSpace=wrap;html=1;" parent="1" vertex="1">
          <mxGeometry x="1384" y="-1352" width="90" height="70" as="geometry" />
        </mxCell>
        <mxCell id="QWyzyQEguM0yE1Y3YgbR-5" value="&lt;font style=&quot;font-size: 18px;&quot;&gt;账单金额&lt;/font&gt;" style="ellipse;whiteSpace=wrap;html=1;" parent="1" vertex="1">
          <mxGeometry x="1474" y="-1302" width="90" height="70" as="geometry" />
        </mxCell>
        <mxCell id="QWyzyQEguM0yE1Y3YgbR-6" value="&lt;span style=&quot;font-size: 18px;&quot;&gt;还款金额&lt;/span&gt;" style="ellipse;whiteSpace=wrap;html=1;" parent="1" vertex="1">
          <mxGeometry x="1529" y="-1222" width="90" height="70" as="geometry" />
        </mxCell>
        <mxCell id="QWyzyQEguM0yE1Y3YgbR-7" value="&lt;font style=&quot;font-size: 18px;&quot;&gt;信用评分&lt;/font&gt;" style="ellipse;whiteSpace=wrap;html=1;" parent="1" vertex="1">
          <mxGeometry x="1554" y="-1146" width="90" height="70" as="geometry" />
        </mxCell>
        <mxCell id="QWyzyQEguM0yE1Y3YgbR-8" value="&lt;font style=&quot;font-size: 18px;&quot;&gt;风险等级&lt;/font&gt;" style="ellipse;whiteSpace=wrap;html=1;" parent="1" vertex="1">
          <mxGeometry x="1564" y="-1056" width="90" height="70" as="geometry" />
        </mxCell>
        <mxCell id="QWyzyQEguM0yE1Y3YgbR-9" value="" style="endArrow=none;html=1;rounded=0;entryX=0.5;entryY=1;entryDx=0;entryDy=0;exitX=0.5;exitY=0;exitDx=0;exitDy=0;" parent="1" source="zDYpZziFO8J9DqXucdiA-1" target="QWyzyQEguM0yE1Y3YgbR-4" edge="1">
          <mxGeometry width="50" height="50" relative="1" as="geometry">
            <mxPoint x="1314" y="-966" as="sourcePoint" />
            <mxPoint x="1229" y="-1252" as="targetPoint" />
          </mxGeometry>
        </mxCell>
        <mxCell id="QWyzyQEguM0yE1Y3YgbR-10" value="" style="endArrow=none;html=1;rounded=0;entryX=0;entryY=1;entryDx=0;entryDy=0;exitX=0.5;exitY=0;exitDx=0;exitDy=0;" parent="1" source="zDYpZziFO8J9DqXucdiA-1" target="QWyzyQEguM0yE1Y3YgbR-5" edge="1">
          <mxGeometry width="50" height="50" relative="1" as="geometry">
            <mxPoint x="1314" y="-966" as="sourcePoint" />
            <mxPoint x="1429" y="-1252" as="targetPoint" />
          </mxGeometry>
        </mxCell>
        <mxCell id="QWyzyQEguM0yE1Y3YgbR-11" value="" style="endArrow=none;html=1;rounded=0;entryX=0;entryY=1;entryDx=0;entryDy=0;exitX=0.5;exitY=0;exitDx=0;exitDy=0;" parent="1" source="zDYpZziFO8J9DqXucdiA-1" target="QWyzyQEguM0yE1Y3YgbR-6" edge="1">
          <mxGeometry width="50" height="50" relative="1" as="geometry">
            <mxPoint x="1314" y="-966" as="sourcePoint" />
            <mxPoint x="1497" y="-1245" as="targetPoint" />
          </mxGeometry>
        </mxCell>
        <mxCell id="QWyzyQEguM0yE1Y3YgbR-12" value="" style="endArrow=none;html=1;rounded=0;entryX=0.5;entryY=0;entryDx=0;entryDy=0;exitX=0;exitY=1;exitDx=0;exitDy=0;" parent="1" source="QWyzyQEguM0yE1Y3YgbR-7" target="zDYpZziFO8J9DqXucdiA-1" edge="1">
          <mxGeometry width="50" height="50" relative="1" as="geometry">
            <mxPoint x="1314" y="-966" as="sourcePoint" />
            <mxPoint x="1081" y="-992" as="targetPoint" />
          </mxGeometry>
        </mxCell>
        <mxCell id="QWyzyQEguM0yE1Y3YgbR-13" value="" style="endArrow=none;html=1;rounded=0;entryX=0.5;entryY=0;entryDx=0;entryDy=0;exitX=0;exitY=0.5;exitDx=0;exitDy=0;" parent="1" source="QWyzyQEguM0yE1Y3YgbR-8" target="zDYpZziFO8J9DqXucdiA-1" edge="1">
          <mxGeometry width="50" height="50" relative="1" as="geometry">
            <mxPoint x="1587" y="-1102" as="sourcePoint" />
            <mxPoint x="1314" y="-966" as="targetPoint" />
          </mxGeometry>
        </mxCell>
        <mxCell id="0jBo7pZahgrigkSRvTY8-1" value="&lt;font style=&quot;font-size: 18px;&quot;&gt;客户性别&lt;/font&gt;" style="ellipse;whiteSpace=wrap;html=1;" parent="1" vertex="1">
          <mxGeometry x="276.25" y="40" width="90" height="70" as="geometry" />
        </mxCell>
        <mxCell id="0jBo7pZahgrigkSRvTY8-2" value="&lt;font style=&quot;font-size: 18px;&quot;&gt;客户年龄&lt;/font&gt;" style="ellipse;whiteSpace=wrap;html=1;" parent="1" vertex="1">
          <mxGeometry x="418.75" y="50" width="90" height="70" as="geometry" />
        </mxCell>
        <mxCell id="0jBo7pZahgrigkSRvTY8-4" value="&lt;span style=&quot;font-size: 18px;&quot;&gt;客户电话&lt;/span&gt;" style="ellipse;whiteSpace=wrap;html=1;" parent="1" vertex="1">
          <mxGeometry x="646.25" y="-130" width="90" height="70" as="geometry" />
        </mxCell>
        <mxCell id="0jBo7pZahgrigkSRvTY8-5" value="&lt;span style=&quot;font-size: 18px;&quot;&gt;客户地址&lt;/span&gt;" style="ellipse;whiteSpace=wrap;html=1;" parent="1" vertex="1">
          <mxGeometry x="616.25" y="-50" width="90" height="70" as="geometry" />
        </mxCell>
        <mxCell id="0jBo7pZahgrigkSRvTY8-6" value="" style="endArrow=none;html=1;rounded=0;entryX=0.5;entryY=0;entryDx=0;entryDy=0;exitX=0.5;exitY=1;exitDx=0;exitDy=0;" parent="1" source="zDYpZziFO8J9DqXucdiA-57" target="0jBo7pZahgrigkSRvTY8-1" edge="1">
          <mxGeometry width="50" height="50" relative="1" as="geometry">
            <mxPoint x="452.75" y="110" as="sourcePoint" />
            <mxPoint x="270.75" y="-1" as="targetPoint" />
          </mxGeometry>
        </mxCell>
        <mxCell id="0jBo7pZahgrigkSRvTY8-7" value="" style="endArrow=none;html=1;rounded=0;entryX=0.5;entryY=0;entryDx=0;entryDy=0;exitX=0.5;exitY=1;exitDx=0;exitDy=0;" parent="1" source="zDYpZziFO8J9DqXucdiA-57" target="0jBo7pZahgrigkSRvTY8-2" edge="1">
          <mxGeometry width="50" height="50" relative="1" as="geometry">
            <mxPoint x="452.75" y="110" as="sourcePoint" />
            <mxPoint x="363.75" y="-40" as="targetPoint" />
          </mxGeometry>
        </mxCell>
        <mxCell id="0jBo7pZahgrigkSRvTY8-8" value="" style="endArrow=none;html=1;rounded=0;entryX=0;entryY=0.5;entryDx=0;entryDy=0;exitX=0.5;exitY=1;exitDx=0;exitDy=0;" parent="1" source="zDYpZziFO8J9DqXucdiA-57" target="0jBo7pZahgrigkSRvTY8-4" edge="1">
          <mxGeometry width="50" height="50" relative="1" as="geometry">
            <mxPoint x="452.75" y="110" as="sourcePoint" />
            <mxPoint x="468.75" y="-60" as="targetPoint" />
          </mxGeometry>
        </mxCell>
        <mxCell id="0jBo7pZahgrigkSRvTY8-9" value="" style="endArrow=none;html=1;rounded=0;entryX=0;entryY=0;entryDx=0;entryDy=0;exitX=0.5;exitY=1;exitDx=0;exitDy=0;" parent="1" source="zDYpZziFO8J9DqXucdiA-57" target="0jBo7pZahgrigkSRvTY8-5" edge="1">
          <mxGeometry width="50" height="50" relative="1" as="geometry">
            <mxPoint x="452.75" y="110" as="sourcePoint" />
            <mxPoint x="573.75" y="-40" as="targetPoint" />
          </mxGeometry>
        </mxCell>
        <mxCell id="0jBo7pZahgrigkSRvTY8-10" value="&lt;span style=&quot;font-size: 18px;&quot;&gt;贷款日期&lt;/span&gt;" style="ellipse;whiteSpace=wrap;html=1;" parent="1" vertex="1">
          <mxGeometry x="-215" y="-900" width="90" height="70" as="geometry" />
        </mxCell>
        <mxCell id="0jBo7pZahgrigkSRvTY8-11" value="&lt;span style=&quot;font-size: 18px;&quot;&gt;还款截止日期&lt;/span&gt;" style="ellipse;whiteSpace=wrap;html=1;" parent="1" vertex="1">
          <mxGeometry x="-101" y="-890" width="90" height="70" as="geometry" />
        </mxCell>
        <mxCell id="0jBo7pZahgrigkSRvTY8-12" value="" style="endArrow=none;html=1;rounded=0;entryX=0.5;entryY=1;entryDx=0;entryDy=0;exitX=0.5;exitY=0;exitDx=0;exitDy=0;" parent="1" source="zDYpZziFO8J9DqXucdiA-89" target="0jBo7pZahgrigkSRvTY8-10" edge="1">
          <mxGeometry width="50" height="50" relative="1" as="geometry">
            <mxPoint x="-170" y="-630" as="sourcePoint" />
            <mxPoint x="-265" y="-800" as="targetPoint" />
          </mxGeometry>
        </mxCell>
        <mxCell id="0jBo7pZahgrigkSRvTY8-13" value="" style="endArrow=none;html=1;rounded=0;entryX=0.5;entryY=1;entryDx=0;entryDy=0;exitX=0.5;exitY=0;exitDx=0;exitDy=0;" parent="1" source="zDYpZziFO8J9DqXucdiA-89" target="0jBo7pZahgrigkSRvTY8-11" edge="1">
          <mxGeometry width="50" height="50" relative="1" as="geometry">
            <mxPoint x="-170" y="-630" as="sourcePoint" />
            <mxPoint x="-160" y="-820" as="targetPoint" />
          </mxGeometry>
        </mxCell>
        <mxCell id="0jBo7pZahgrigkSRvTY8-14" value="&lt;font style=&quot;font-size: 18px;&quot;&gt;交易金额&lt;/font&gt;" style="ellipse;whiteSpace=wrap;html=1;" parent="1" vertex="1">
          <mxGeometry x="1024" y="-80" width="90" height="70" as="geometry" />
        </mxCell>
        <mxCell id="0jBo7pZahgrigkSRvTY8-15" value="" style="endArrow=none;html=1;rounded=0;entryX=1;entryY=0;entryDx=0;entryDy=0;exitX=0.5;exitY=1;exitDx=0;exitDy=0;" parent="1" source="zDYpZziFO8J9DqXucdiA-12" target="0jBo7pZahgrigkSRvTY8-14" edge="1">
          <mxGeometry width="50" height="50" relative="1" as="geometry">
            <mxPoint x="1311" y="-210" as="sourcePoint" />
            <mxPoint x="1186" y="-400" as="targetPoint" />
          </mxGeometry>
        </mxCell>
        <mxCell id="kUGzcPoKTlsAgZJneqE9-1" value="&lt;span style=&quot;font-size: 18px;&quot;&gt;风险客户&lt;/span&gt;" style="rounded=0;whiteSpace=wrap;html=1;" vertex="1" parent="1">
          <mxGeometry x="342.5" y="-1004" width="120" height="60" as="geometry" />
        </mxCell>
        <mxCell id="kUGzcPoKTlsAgZJneqE9-2" value="&lt;span style=&quot;font-size: 18px;&quot;&gt;客户ID&lt;/span&gt;" style="ellipse;whiteSpace=wrap;html=1;" vertex="1" parent="1">
          <mxGeometry x="77.5" y="-1084" width="90" height="70" as="geometry" />
        </mxCell>
        <mxCell id="kUGzcPoKTlsAgZJneqE9-3" value="&lt;font style=&quot;font-size: 18px;&quot;&gt;信用额度&lt;/font&gt;" style="ellipse;whiteSpace=wrap;html=1;" vertex="1" parent="1">
          <mxGeometry x="77.5" y="-1174" width="90" height="70" as="geometry" />
        </mxCell>
        <mxCell id="kUGzcPoKTlsAgZJneqE9-4" value="&lt;font style=&quot;font-size: 18px;&quot;&gt;性别&lt;/font&gt;" style="ellipse;whiteSpace=wrap;html=1;" vertex="1" parent="1">
          <mxGeometry x="122.5" y="-1260" width="90" height="70" as="geometry" />
        </mxCell>
        <mxCell id="kUGzcPoKTlsAgZJneqE9-5" value="&lt;font style=&quot;font-size: 18px;&quot;&gt;教育&lt;/font&gt;" style="ellipse;whiteSpace=wrap;html=1;" vertex="1" parent="1">
          <mxGeometry x="182.5" y="-1320" width="90" height="70" as="geometry" />
        </mxCell>
        <mxCell id="kUGzcPoKTlsAgZJneqE9-6" value="&lt;span style=&quot;font-size: 18px;&quot;&gt;婚姻状况&lt;/span&gt;" style="ellipse;whiteSpace=wrap;html=1;" vertex="1" parent="1">
          <mxGeometry x="272.5" y="-1360" width="90" height="70" as="geometry" />
        </mxCell>
        <mxCell id="kUGzcPoKTlsAgZJneqE9-7" value="" style="endArrow=none;html=1;rounded=0;entryX=1;entryY=1;entryDx=0;entryDy=0;exitX=0.5;exitY=0;exitDx=0;exitDy=0;" edge="1" parent="1" source="kUGzcPoKTlsAgZJneqE9-1" target="kUGzcPoKTlsAgZJneqE9-2">
          <mxGeometry width="50" height="50" relative="1" as="geometry">
            <mxPoint x="382.5" y="-954" as="sourcePoint" />
            <mxPoint x="432.5" y="-1004" as="targetPoint" />
          </mxGeometry>
        </mxCell>
        <mxCell id="kUGzcPoKTlsAgZJneqE9-8" value="" style="endArrow=none;html=1;rounded=0;entryX=0.632;entryY=0.98;entryDx=0;entryDy=0;exitX=0.5;exitY=0;exitDx=0;exitDy=0;entryPerimeter=0;" edge="1" parent="1" source="kUGzcPoKTlsAgZJneqE9-1" target="kUGzcPoKTlsAgZJneqE9-3">
          <mxGeometry width="50" height="50" relative="1" as="geometry">
            <mxPoint x="412.5" y="-994" as="sourcePoint" />
            <mxPoint x="239.5" y="-1064" as="targetPoint" />
          </mxGeometry>
        </mxCell>
        <mxCell id="kUGzcPoKTlsAgZJneqE9-9" value="" style="endArrow=none;html=1;rounded=0;entryX=0.5;entryY=1;entryDx=0;entryDy=0;exitX=0.5;exitY=0;exitDx=0;exitDy=0;" edge="1" parent="1" source="kUGzcPoKTlsAgZJneqE9-1" target="kUGzcPoKTlsAgZJneqE9-4">
          <mxGeometry width="50" height="50" relative="1" as="geometry">
            <mxPoint x="412.5" y="-994" as="sourcePoint" />
            <mxPoint x="329.5" y="-1115" as="targetPoint" />
          </mxGeometry>
        </mxCell>
        <mxCell id="kUGzcPoKTlsAgZJneqE9-10" value="" style="endArrow=none;html=1;rounded=0;entryX=0.5;entryY=1;entryDx=0;entryDy=0;" edge="1" parent="1" target="kUGzcPoKTlsAgZJneqE9-5">
          <mxGeometry width="50" height="50" relative="1" as="geometry">
            <mxPoint x="402.5" y="-1004" as="sourcePoint" />
            <mxPoint x="427.5" y="-1144" as="targetPoint" />
          </mxGeometry>
        </mxCell>
        <mxCell id="kUGzcPoKTlsAgZJneqE9-11" value="" style="endArrow=none;html=1;rounded=0;entryX=0.5;entryY=1;entryDx=0;entryDy=0;" edge="1" parent="1" target="kUGzcPoKTlsAgZJneqE9-6">
          <mxGeometry width="50" height="50" relative="1" as="geometry">
            <mxPoint x="402.5" y="-1004" as="sourcePoint" />
            <mxPoint x="525.5" y="-1124" as="targetPoint" />
          </mxGeometry>
        </mxCell>
        <mxCell id="kUGzcPoKTlsAgZJneqE9-12" value="&lt;font style=&quot;font-size: 18px;&quot;&gt;年龄&lt;/font&gt;" style="ellipse;whiteSpace=wrap;html=1;" vertex="1" parent="1">
          <mxGeometry x="372.5" y="-1390" width="90" height="70" as="geometry" />
        </mxCell>
        <mxCell id="kUGzcPoKTlsAgZJneqE9-13" value="" style="endArrow=none;html=1;rounded=0;entryX=0.5;entryY=1;entryDx=0;entryDy=0;exitX=0.5;exitY=0;exitDx=0;exitDy=0;" edge="1" parent="1" source="kUGzcPoKTlsAgZJneqE9-1" target="kUGzcPoKTlsAgZJneqE9-12">
          <mxGeometry width="50" height="50" relative="1" as="geometry">
            <mxPoint x="412.5" y="-994" as="sourcePoint" />
            <mxPoint x="327.5" y="-1280" as="targetPoint" />
          </mxGeometry>
        </mxCell>
        <mxCell id="kUGzcPoKTlsAgZJneqE9-14" value="&lt;span style=&quot;font-size: 18px;&quot;&gt;还款状态&lt;/span&gt;" style="ellipse;whiteSpace=wrap;html=1;" vertex="1" parent="1">
          <mxGeometry x="482.5" y="-1380" width="90" height="70" as="geometry" />
        </mxCell>
        <mxCell id="kUGzcPoKTlsAgZJneqE9-15" value="&lt;font style=&quot;font-size: 18px;&quot;&gt;账单金额&lt;/font&gt;" style="ellipse;whiteSpace=wrap;html=1;" vertex="1" parent="1">
          <mxGeometry x="572.5" y="-1330" width="90" height="70" as="geometry" />
        </mxCell>
        <mxCell id="kUGzcPoKTlsAgZJneqE9-16" value="&lt;span style=&quot;font-size: 18px;&quot;&gt;还款金额&lt;/span&gt;" style="ellipse;whiteSpace=wrap;html=1;" vertex="1" parent="1">
          <mxGeometry x="627.5" y="-1250" width="90" height="70" as="geometry" />
        </mxCell>
        <mxCell id="kUGzcPoKTlsAgZJneqE9-17" value="&lt;font style=&quot;font-size: 18px;&quot;&gt;信用评分&lt;/font&gt;" style="ellipse;whiteSpace=wrap;html=1;" vertex="1" parent="1">
          <mxGeometry x="652.5" y="-1174" width="90" height="70" as="geometry" />
        </mxCell>
        <mxCell id="kUGzcPoKTlsAgZJneqE9-18" value="&lt;font style=&quot;font-size: 18px;&quot;&gt;风险等级&lt;/font&gt;" style="ellipse;whiteSpace=wrap;html=1;" vertex="1" parent="1">
          <mxGeometry x="662.5" y="-1084" width="90" height="70" as="geometry" />
        </mxCell>
        <mxCell id="kUGzcPoKTlsAgZJneqE9-19" value="" style="endArrow=none;html=1;rounded=0;entryX=0.5;entryY=1;entryDx=0;entryDy=0;exitX=0.5;exitY=0;exitDx=0;exitDy=0;" edge="1" parent="1" source="kUGzcPoKTlsAgZJneqE9-1" target="kUGzcPoKTlsAgZJneqE9-14">
          <mxGeometry width="50" height="50" relative="1" as="geometry">
            <mxPoint x="412.5" y="-994" as="sourcePoint" />
            <mxPoint x="327.5" y="-1280" as="targetPoint" />
          </mxGeometry>
        </mxCell>
        <mxCell id="kUGzcPoKTlsAgZJneqE9-20" value="" style="endArrow=none;html=1;rounded=0;entryX=0;entryY=1;entryDx=0;entryDy=0;exitX=0.5;exitY=0;exitDx=0;exitDy=0;" edge="1" parent="1" source="kUGzcPoKTlsAgZJneqE9-1" target="kUGzcPoKTlsAgZJneqE9-15">
          <mxGeometry width="50" height="50" relative="1" as="geometry">
            <mxPoint x="412.5" y="-994" as="sourcePoint" />
            <mxPoint x="527.5" y="-1280" as="targetPoint" />
          </mxGeometry>
        </mxCell>
        <mxCell id="kUGzcPoKTlsAgZJneqE9-21" value="" style="endArrow=none;html=1;rounded=0;entryX=0;entryY=1;entryDx=0;entryDy=0;exitX=0.5;exitY=0;exitDx=0;exitDy=0;" edge="1" parent="1" source="kUGzcPoKTlsAgZJneqE9-1" target="kUGzcPoKTlsAgZJneqE9-16">
          <mxGeometry width="50" height="50" relative="1" as="geometry">
            <mxPoint x="412.5" y="-994" as="sourcePoint" />
            <mxPoint x="595.5" y="-1273" as="targetPoint" />
          </mxGeometry>
        </mxCell>
        <mxCell id="kUGzcPoKTlsAgZJneqE9-22" value="" style="endArrow=none;html=1;rounded=0;entryX=0.5;entryY=0;entryDx=0;entryDy=0;exitX=0;exitY=1;exitDx=0;exitDy=0;" edge="1" parent="1" source="kUGzcPoKTlsAgZJneqE9-17" target="kUGzcPoKTlsAgZJneqE9-1">
          <mxGeometry width="50" height="50" relative="1" as="geometry">
            <mxPoint x="412.5" y="-994" as="sourcePoint" />
            <mxPoint x="179.5" y="-1020" as="targetPoint" />
          </mxGeometry>
        </mxCell>
        <mxCell id="kUGzcPoKTlsAgZJneqE9-23" value="" style="endArrow=none;html=1;rounded=0;entryX=0.5;entryY=0;entryDx=0;entryDy=0;exitX=0;exitY=0.5;exitDx=0;exitDy=0;" edge="1" parent="1" source="kUGzcPoKTlsAgZJneqE9-18" target="kUGzcPoKTlsAgZJneqE9-1">
          <mxGeometry width="50" height="50" relative="1" as="geometry">
            <mxPoint x="685.5" y="-1130" as="sourcePoint" />
            <mxPoint x="412.5" y="-994" as="targetPoint" />
          </mxGeometry>
        </mxCell>
        <mxCell id="kUGzcPoKTlsAgZJneqE9-24" value="&lt;font style=&quot;font-size: 18px;&quot;&gt;查询&lt;/font&gt;" style="rhombus;whiteSpace=wrap;html=1;" vertex="1" parent="1">
          <mxGeometry x="362.5" y="-650" width="80" height="80" as="geometry" />
        </mxCell>
        <mxCell id="kUGzcPoKTlsAgZJneqE9-25" value="&lt;font style=&quot;font-size: 18px;&quot;&gt;查询&lt;/font&gt;" style="rhombus;whiteSpace=wrap;html=1;" vertex="1" parent="1">
          <mxGeometry x="1261" y="-654" width="80" height="80" as="geometry" />
        </mxCell>
        <mxCell id="kUGzcPoKTlsAgZJneqE9-26" value="&lt;font style=&quot;font-size: 18px;&quot;&gt;查询&lt;/font&gt;" style="rhombus;whiteSpace=wrap;html=1;" vertex="1" parent="1">
          <mxGeometry x="840" y="-1169" width="80" height="80" as="geometry" />
        </mxCell>
        <mxCell id="kUGzcPoKTlsAgZJneqE9-28" value="" style="endArrow=none;html=1;rounded=0;entryX=0.5;entryY=1;entryDx=0;entryDy=0;exitX=0.5;exitY=0;exitDx=0;exitDy=0;" edge="1" parent="1" source="kUGzcPoKTlsAgZJneqE9-24" target="kUGzcPoKTlsAgZJneqE9-1">
          <mxGeometry width="50" height="50" relative="1" as="geometry">
            <mxPoint x="680" y="-530" as="sourcePoint" />
            <mxPoint x="730" y="-580" as="targetPoint" />
          </mxGeometry>
        </mxCell>
        <mxCell id="kUGzcPoKTlsAgZJneqE9-29" value="" style="endArrow=none;html=1;rounded=0;exitX=1;exitY=0.5;exitDx=0;exitDy=0;entryX=0;entryY=0.5;entryDx=0;entryDy=0;" edge="1" parent="1" source="zDYpZziFO8J9DqXucdiA-89" target="kUGzcPoKTlsAgZJneqE9-24">
          <mxGeometry width="50" height="50" relative="1" as="geometry">
            <mxPoint x="680" y="-530" as="sourcePoint" />
            <mxPoint x="730" y="-580" as="targetPoint" />
          </mxGeometry>
        </mxCell>
        <mxCell id="kUGzcPoKTlsAgZJneqE9-30" value="" style="endArrow=none;html=1;rounded=0;entryX=0.5;entryY=1;entryDx=0;entryDy=0;exitX=0.5;exitY=0;exitDx=0;exitDy=0;" edge="1" parent="1" source="kUGzcPoKTlsAgZJneqE9-25" target="zDYpZziFO8J9DqXucdiA-1">
          <mxGeometry width="50" height="50" relative="1" as="geometry">
            <mxPoint x="680" y="-530" as="sourcePoint" />
            <mxPoint x="730" y="-580" as="targetPoint" />
          </mxGeometry>
        </mxCell>
        <mxCell id="kUGzcPoKTlsAgZJneqE9-31" value="" style="endArrow=none;html=1;rounded=0;entryX=0.5;entryY=1;entryDx=0;entryDy=0;exitX=0.5;exitY=0;exitDx=0;exitDy=0;" edge="1" parent="1" source="zDYpZziFO8J9DqXucdiA-12" target="kUGzcPoKTlsAgZJneqE9-25">
          <mxGeometry width="50" height="50" relative="1" as="geometry">
            <mxPoint x="1311" y="-680" as="sourcePoint" />
            <mxPoint x="1314" y="-906" as="targetPoint" />
          </mxGeometry>
        </mxCell>
        <mxCell id="kUGzcPoKTlsAgZJneqE9-32" value="" style="endArrow=none;html=1;rounded=0;entryX=0;entryY=0.5;entryDx=0;entryDy=0;exitX=1;exitY=0.5;exitDx=0;exitDy=0;" edge="1" parent="1" source="kUGzcPoKTlsAgZJneqE9-24" target="kUGzcPoKTlsAgZJneqE9-25">
          <mxGeometry width="50" height="50" relative="1" as="geometry">
            <mxPoint x="1050" y="-470" as="sourcePoint" />
            <mxPoint x="1100" y="-520" as="targetPoint" />
          </mxGeometry>
        </mxCell>
        <mxCell id="kUGzcPoKTlsAgZJneqE9-33" value="" style="endArrow=none;html=1;rounded=0;entryX=0;entryY=0.5;entryDx=0;entryDy=0;exitX=1;exitY=0.5;exitDx=0;exitDy=0;" edge="1" parent="1" source="kUGzcPoKTlsAgZJneqE9-25" target="zDYpZziFO8J9DqXucdiA-68">
          <mxGeometry width="50" height="50" relative="1" as="geometry">
            <mxPoint x="840" y="-590" as="sourcePoint" />
            <mxPoint x="890" y="-640" as="targetPoint" />
          </mxGeometry>
        </mxCell>
        <mxCell id="kUGzcPoKTlsAgZJneqE9-34" value="" style="endArrow=none;html=1;rounded=0;entryX=0.5;entryY=1;entryDx=0;entryDy=0;exitX=0.5;exitY=0;exitDx=0;exitDy=0;" edge="1" parent="1" source="zDYpZziFO8J9DqXucdiA-57" target="kUGzcPoKTlsAgZJneqE9-24">
          <mxGeometry width="50" height="50" relative="1" as="geometry">
            <mxPoint x="413" y="-640" as="sourcePoint" />
            <mxPoint x="413" y="-934" as="targetPoint" />
          </mxGeometry>
        </mxCell>
      </root>
    </mxGraphModel>
  </diagram>
</mxfile>
